<svg xmlns="http://www.w3.org/2000/svg" xmlns:xlink="http://www.w3.org/1999/xlink" class="outline" width="12" height="12" viewBox="0 0 9 9" fill="none"><g clip-path="url(#clip0)"><path d="M7.6131 2.0707C7.51466 1.84043 7.35294 1.64355 7.14728 1.50469C7.04532 1.43613 6.93107 1.37988 6.80978 1.34297C6.68849 1.30605 6.56017 1.28496 6.42833 1.28496C6.25255 1.28496 6.08204 1.32012 5.92736 1.38691C5.69708 1.48535 5.50021 1.64707 5.36134 1.85273C5.29279 1.95469 5.23653 2.06895 5.19962 2.19023C5.16271 2.31152 5.14161 2.43984 5.14161 2.57168C5.14161 2.74746 5.17677 2.91797 5.24357 3.07266C5.342 3.30293 5.50372 3.4998 5.70939 3.63867C5.81134 3.70723 5.9256 3.76348 6.04689 3.80039C6.06095 3.80391 6.07325 3.80742 6.08732 3.8127C6.08204 3.84434 6.07677 3.87422 6.0715 3.90234C6.0504 4.00078 6.02052 4.08516 5.98361 4.15898C5.95021 4.22754 5.90978 4.28906 5.86407 4.34355C5.82189 4.39453 5.77267 4.44199 5.71818 4.48594C5.61622 4.5668 5.49318 4.63711 5.35079 4.69688C5.22599 4.74961 5.08712 4.79355 4.93946 4.83398C4.68107 4.90254 4.39454 4.95703 4.10626 5.01855C3.89005 5.06426 3.67384 5.11523 3.46466 5.18555C3.30822 5.23828 3.15529 5.30156 3.01114 5.38418C2.97072 5.40703 2.93204 5.43164 2.89337 5.45801V2.53301C2.9549 2.51719 3.01466 2.49609 3.07267 2.47148C3.30294 2.37305 3.49982 2.21133 3.63868 2.00566C3.70724 1.90371 3.76349 1.78945 3.8004 1.66816C3.83732 1.54688 3.85841 1.41855 3.85841 1.28672C3.85841 1.11094 3.82325 0.94043 3.75646 0.785742C3.65802 0.555469 3.4963 0.358594 3.29064 0.219727C3.18868 0.151172 3.07443 0.0949219 2.95314 0.0580078C2.83185 0.0193359 2.70353 0 2.57169 0C2.39591 0 2.2254 0.0351563 2.07072 0.101953C1.84044 0.200391 1.64357 0.362109 1.5047 0.567773C1.43615 0.669727 1.3799 0.783984 1.34298 0.905273C1.30607 1.02656 1.28497 1.15488 1.28497 1.28672C1.28497 1.4625 1.32013 1.63301 1.38693 1.7877C1.48536 2.01797 1.64708 2.21484 1.85275 2.35371C1.9547 2.42227 2.06896 2.47852 2.19025 2.51543C2.20958 2.5207 2.23068 2.52598 2.25001 2.53125V6.46875C2.18849 6.48457 2.12872 6.50566 2.07072 6.53027C1.84044 6.62871 1.64357 6.79043 1.5047 6.99609C1.43615 7.09805 1.3799 7.21231 1.34298 7.33359C1.30607 7.45488 1.28497 7.5832 1.28497 7.71504C1.28497 7.89082 1.32013 8.06133 1.38693 8.21602C1.48536 8.44629 1.64708 8.64316 1.85275 8.78203C1.9547 8.85059 2.06896 8.90684 2.19025 8.94375C2.31154 8.98066 2.43986 9.00176 2.57169 9.00176C2.74747 9.00176 2.91798 8.9666 3.07267 8.8998C3.30294 8.80137 3.49982 8.63965 3.63868 8.43398C3.70724 8.33203 3.76349 8.21777 3.8004 8.09648C3.83732 7.9752 3.85841 7.84687 3.85841 7.71504C3.85841 7.53926 3.82325 7.36875 3.75646 7.21406C3.65802 6.98379 3.4963 6.78691 3.29064 6.64805C3.18868 6.57949 3.07443 6.52324 2.95314 6.48633C2.94259 6.48281 2.93029 6.4793 2.91974 6.47578C2.9215 6.46699 2.92325 6.4582 2.92501 6.45117C2.94435 6.37207 2.97247 6.30703 3.00411 6.24902C3.03575 6.19453 3.07091 6.14707 3.11486 6.10313C3.15529 6.06094 3.20275 6.02227 3.25548 5.98711C3.35568 5.91855 3.48224 5.86055 3.62814 5.80957C3.7547 5.76562 3.89708 5.72695 4.04825 5.69004C4.31193 5.62676 4.60372 5.57578 4.89552 5.50723C5.11525 5.45625 5.33497 5.39473 5.54767 5.31035C5.70763 5.24707 5.86232 5.16973 6.00646 5.07129C6.11544 4.99746 6.21739 4.91133 6.3088 4.81113C6.44591 4.65996 6.55841 4.47539 6.634 4.2627C6.68146 4.12734 6.71486 3.98145 6.73068 3.82148C6.79923 3.80566 6.86427 3.78281 6.92931 3.75645C7.15958 3.65801 7.35646 3.49629 7.49532 3.29062C7.56388 3.18867 7.62013 3.07441 7.65704 2.95312C7.69396 2.83184 7.71505 2.70352 7.71505 2.57168C7.71505 2.3959 7.67989 2.22539 7.6131 2.0707ZM2.03556 1.64531C2.0004 1.59434 1.97404 1.53809 1.9547 1.47656C1.93536 1.4168 1.92657 1.35176 1.92657 1.28496C1.92657 1.19531 1.94415 1.11094 1.97755 1.03535C2.02677 0.921094 2.10763 0.820898 2.21134 0.752344C2.26232 0.717187 2.31857 0.69082 2.38009 0.671484C2.43986 0.652148 2.50489 0.643359 2.57169 0.643359C2.66134 0.643359 2.74572 0.660937 2.8213 0.694336C2.93556 0.743555 3.03575 0.824414 3.10431 0.928125C3.13947 0.979102 3.16583 1.03535 3.18517 1.09688C3.2045 1.15664 3.21329 1.22168 3.21329 1.28848C3.21329 1.37813 3.19572 1.4625 3.16232 1.53809C3.1131 1.65234 3.03224 1.75254 2.92853 1.82109C2.87755 1.85625 2.8213 1.88262 2.75978 1.90195C2.70704 1.91953 2.64904 1.92832 2.59103 1.93008C2.584 1.93008 2.57872 1.92832 2.57169 1.92832C2.5629 1.92832 2.55587 1.92832 2.54708 1.93008C2.46447 1.92832 2.38888 1.91074 2.31857 1.8791C2.20431 1.82988 2.10411 1.74902 2.03556 1.64531ZM3.10431 7.35645C3.13947 7.40742 3.16583 7.46367 3.18517 7.5252C3.2045 7.58496 3.21329 7.65 3.21329 7.7168C3.21329 7.80645 3.19572 7.89082 3.16232 7.96641C3.1131 8.08066 3.03224 8.18086 2.92853 8.24941C2.87755 8.28457 2.8213 8.31094 2.75978 8.33027C2.70001 8.34961 2.63497 8.3584 2.56818 8.3584C2.47853 8.3584 2.39415 8.34082 2.31857 8.30742C2.20431 8.2582 2.10411 8.17734 2.03556 8.07363C2.0004 8.02266 1.97404 7.96641 1.9547 7.90488C1.93536 7.84512 1.92657 7.78008 1.92657 7.71328C1.92657 7.62363 1.94415 7.53926 1.97755 7.46367C2.02677 7.34941 2.10763 7.24922 2.21134 7.18066C2.26232 7.14551 2.31857 7.11914 2.38009 7.0998C2.43282 7.08223 2.49083 7.07344 2.5506 7.07168C2.55763 7.07168 2.56466 7.07344 2.56993 7.07344C2.57872 7.07344 2.58575 7.07344 2.59454 7.07168C2.6754 7.0752 2.75275 7.09102 2.8213 7.12266C2.93556 7.17188 3.03575 7.25273 3.10431 7.35645ZM7.01896 2.82305C6.96974 2.9373 6.88888 3.0375 6.78517 3.10605C6.73419 3.14121 6.67794 3.16758 6.61642 3.18691C6.55665 3.20625 6.49161 3.21504 6.42482 3.21504C6.33517 3.21504 6.25079 3.19746 6.17521 3.16406C6.06095 3.11484 5.96075 3.03398 5.8922 2.93027C5.85704 2.8793 5.83068 2.82305 5.81134 2.76152C5.792 2.70176 5.78321 2.63672 5.78321 2.56992C5.78321 2.48027 5.80079 2.3959 5.83419 2.32031C5.88341 2.20605 5.96427 2.10586 6.06798 2.0373C6.11896 2.00215 6.17521 1.97578 6.23673 1.95645C6.2965 1.93711 6.36154 1.92832 6.42833 1.92832C6.51798 1.92832 6.60236 1.9459 6.67794 1.9793C6.7922 2.02852 6.89239 2.10938 6.96095 2.21309C6.99611 2.26406 7.02247 2.32031 7.04181 2.38184C7.06114 2.4416 7.06993 2.50664 7.06993 2.57344C7.06993 2.66309 7.05235 2.74746 7.01896 2.82305Z" fill="#777E91"></path></g><defs><clipPath id="clip0"><rect width="9" height="9" fill="white"></rect></clipPath></defs></svg>